<?xml version="1.0" standalone="no"?>
<!DOCTYPE svg PUBLIC "-//W3C//DTD SVG 20010904//EN"
 "http://www.w3.org/TR/2001/REC-SVG-20010904/DTD/svg10.dtd">
<svg version="1.0" xmlns="http://www.w3.org/2000/svg"
 width="250.000000pt" height="120.000000pt" viewBox="0 0 250.000000 120.000000"
 preserveAspectRatio="xMidYMid meet">
<metadata>
Created by potrace 1.10, written by Peter Selinger 2001-2011
</metadata>
<g transform="translate(0.000000,120.000000) scale(0.100000,-0.100000)"
fill="#000000" stroke="none">
<path d="M900 1047 c-52 -26 -49 -106 5 -127 80 -31 132 85 55 125 -35 18 -29
18 -60 2z m47 -53 c8 -21 -13 -42 -28 -27 -13 13 -5 43 11 43 6 0 13 -7 17
-16z"/>
<path d="M454 1031 c-79 -29 -114 -50 -171 -104 -170 -161 -190 -416 -47 -606
52 -69 142 -133 224 -158 77 -23 220 -23 287 0 130 45 245 163 285 292 29 91
30 217 2 290 l-20 50 -67 3 -68 3 24 -43 c14 -24 28 -58 32 -75 l7 -33 -71 0
c-39 0 -71 3 -71 8 0 42 -25 191 -40 243 -14 48 -31 78 -60 108 l-40 41 -77
-1 c-48 0 -98 -7 -129 -18z m204 -37 c38 -26 72 -107 87 -212 8 -53 15 -103
15 -110 0 -7 11 -24 25 -37 33 -34 119 -36 160 -3 25 20 27 25 22 70 -5 36 -3
48 6 45 22 -7 37 -55 43 -134 5 -69 3 -86 -20 -147 -76 -201 -256 -309 -460
-276 -93 15 -170 53 -232 115 -183 183 -158 482 54 633 88 62 248 93 300 56z"/>
<path d="M555 948 c-28 -27 -39 -48 -55 -112 -45 -177 -23 -226 100 -226 93 0
120 21 120 93 0 29 -9 88 -19 132 -16 66 -25 85 -55 112 -20 18 -40 33 -46 33
-6 0 -26 -15 -45 -32z m85 -50 c18 -42 35 -120 44 -205 l4 -43 -88 0 -88 0 4
43 c23 217 78 308 124 205z"/>
<path d="M373 901 c-72 -52 -142 -162 -143 -223 0 -40 41 -68 102 -68 88 0
101 16 118 140 6 47 13 97 16 112 4 19 -1 33 -15 47 -27 27 -30 27 -78 -8z
m62 -18 c-8 -22 -22 -100 -30 -175 l-6 -58 -70 0 c-80 0 -79 -4 -35 96 32 69
166 200 141 137z"/>
<path d="M252 557 c-12 -13 -22 -33 -22 -46 0 -67 114 -222 176 -237 37 -10
68 27 60 71 -3 16 -10 66 -16 109 -13 107 -31 126 -115 126 -51 0 -65 -4 -83
-23z m153 -74 c3 -32 12 -87 20 -123 7 -36 12 -66 10 -68 -10 -10 -118 108
-139 151 -47 99 -47 97 33 97 l70 0 6 -57z"/>
<path d="M502 557 c-27 -29 -29 -86 -6 -183 24 -105 57 -154 104 -154 48 0 82
52 105 160 35 165 16 200 -106 200 -66 0 -78 -3 -97 -23z m181 -64 c-9 -94
-35 -194 -58 -221 -20 -23 -25 -25 -39 -12 -30 24 -57 115 -70 238 l-4 42 88
0 88 0 -5 -47z"/>
<path d="M782 557 c-16 -17 -25 -44 -32 -103 -6 -43 -13 -93 -16 -109 -8 -44
23 -81 59 -71 36 9 121 97 147 153 53 112 33 153 -73 153 -53 0 -67 -4 -85
-23z m153 -39 c-23 -75 -52 -123 -107 -174 -33 -30 -62 -54 -63 -52 -2 2 3 32
10 68 8 36 17 91 20 123 l6 57 70 0 c68 0 70 -1 64 -22z"/>
<path d="M1828 923 c-35 -8 -17 -23 28 -23 30 0 44 4 42 11 -4 13 -41 18 -70
12z"/>
<path d="M1790 870 c-4 -8 -10 -32 -13 -52 -5 -32 -3 -38 16 -44 27 -9 98 -8
126 1 21 6 30 35 11 35 -5 0 -7 13 -4 29 8 36 -3 43 -73 45 -40 1 -57 -3 -63
-14z m83 -30 c6 -24 -16 -46 -30 -28 -8 11 -9 23 -4 43 3 14 29 2 34 -15z"/>
<path d="M1664 815 c-13 -34 11 -79 64 -119 29 -21 52 -45 52 -51 0 -8 8 -11
20 -8 18 5 20 1 18 -28 -3 -32 -2 -33 40 -34 41 -1 42 -1 42 33 0 25 4 33 14
29 8 -3 16 2 19 13 3 10 23 30 46 44 47 30 75 77 66 113 -7 29 -29 26 -33 -5
-3 -17 -8 -21 -25 -16 -16 3 -30 -3 -47 -20 -13 -15 -29 -26 -36 -26 -13 0
-39 -36 -47 -65 -4 -19 -5 -19 -6 1 -1 21 -10 32 -74 85 -43 36 -76 34 -56 -3
9 -18 9 -21 -1 -11 -7 6 -15 26 -19 44 -7 36 -28 49 -37 24z"/>
<path d="M2043 674 c-21 -8 -39 -14 -40 -14 -6 0 -23 -79 -23 -103 0 -24 -3
-27 -20 -22 -18 6 -20 2 -20 -34 0 -34 3 -41 20 -41 19 0 20 -7 20 -106 l0
-105 42 3 42 3 -3 103 -3 102 37 0 c36 0 36 0 33 38 -3 35 -5 37 -35 34 -29
-3 -33 0 -33 22 0 42 10 56 41 56 26 0 29 3 29 34 0 28 -4 34 -24 38 -14 3
-42 -1 -63 -8z m2 -194 c-23 -25 -31 -25 -45 1 -9 16 -8 25 6 40 18 20 18 20
38 0 19 -20 19 -21 1 -41z"/>
<path d="M1310 465 l0 -215 40 0 40 0 0 100 c0 98 1 101 26 112 48 22 59 4 62
-111 l3 -101 39 0 40 0 0 110 c0 115 -12 161 -45 174 -30 11 -80 6 -103 -10
l-22 -15 0 85 0 86 -40 0 -40 0 0 -215z m64 36 c8 -12 -3 -41 -15 -41 -5 0 -9
11 -9 25 0 25 14 34 24 16z"/>
<path d="M1104 605 c-3 -7 -4 -25 -2 -41 2 -24 -1 -30 -19 -32 -19 -3 -23 -10
-23 -38 0 -30 3 -34 25 -34 22 0 25 -3 19 -25 -3 -14 -3 -51 1 -82 9 -74 37
-103 98 -103 44 0 45 1 49 35 4 32 2 34 -27 37 -30 3 -30 3 -33 71 l-3 67 36
0 c34 0 35 1 35 40 l0 41 -35 -7 -35 -6 0 45 0 46 -41 -1 c-23 0 -43 -6 -45
-13z m60 -125 c-20 -20 -21 -20 -37 -2 -15 17 -15 20 -1 41 l16 23 21 -21 21
-21 -20 -20z"/>
<path d="M2200 574 c0 -38 -3 -45 -18 -42 -21 3 -22 1 -22 -42 0 -23 4 -30 20
-30 18 0 20 -7 20 -70 0 -108 25 -140 110 -140 40 0 40 0 40 39 0 34 -3 38
-20 34 -35 -9 -50 14 -50 78 l0 59 35 0 c32 0 35 2 35 30 0 43 -2 45 -37 42
-33 -3 -33 -3 -33 43 l0 45 -40 0 -40 0 0 -46z m68 -70 c2 -11 -4 -27 -13 -34
-22 -19 -50 9 -40 39 9 29 49 25 53 -5z"/>
<path d="M1610 395 l0 -145 45 0 44 0 3 103 3 102 33 3 c30 3 32 6 32 43 0 31
-4 39 -18 39 -10 0 -27 -7 -38 -15 -25 -19 -34 -19 -34 0 0 10 -11 15 -35 15
l-35 0 0 -145z"/>
<path d="M1820 393 l0 -143 40 0 40 0 0 143 0 142 -40 0 -40 0 0 -142z"/>
</g>
</svg>
